<?xml version="1.0" encoding="utf-8"?>
<!-- Generator: Adobe Illustrator 21.1.0, SVG Export Plug-In . SVG Version: 6.00 Build 0)  -->
<svg version="1.1" id="Layer_1" xmlns="http://www.w3.org/2000/svg" xmlns:xlink="http://www.w3.org/1999/xlink" x="0px" y="0px"
	 width="132.8px" height="132.8px" viewBox="0 0 132.8 132.8" style="enable-background:new 0 0 132.8 132.8;" xml:space="preserve"
	>
<path d="M66.4,0c36.7,0,66.4,29.7,66.4,66.4c0,36.7-29.7,66.4-66.4,66.4C29.7,132.8,0,103.1,0,66.4C0,29.7,29.7,0,66.4,0z M66.4,6.3
	C33.2,6.3,6.3,33.2,6.3,66.4c0,33.2,26.9,60.1,60.1,60.1c33.2,0,60.1-26.9,60.1-60.1C126.5,33.2,99.6,6.3,66.4,6.3z M117,66.4
	c0,27.9-22.7,50.6-50.6,50.6c-27.9,0-50.6-22.7-50.6-50.6c0-27.9,22.7-50.6,50.6-50.6C94.4,15.8,117,38.5,117,66.4z M110.7,66.4
	c0-24.5-19.8-44.3-44.3-44.3C42,22.1,22.1,42,22.1,66.4c0,24.5,19.8,44.3,44.3,44.3C90.9,110.7,110.7,90.9,110.7,66.4z M72.7,66.4
	c0-3.5-2.8-6.3-6.3-6.3c-3.5,0-6.3,2.8-6.3,6.3c0,3.5,2.8,6.3,6.3,6.3C69.9,72.7,72.7,69.9,72.7,66.4z M101.2,69.6l-22.5,0
	c-1.4,5.5-6.4,9.5-12.3,9.5c-7,0-12.6-5.7-12.6-12.6c0-7,5.7-12.6,12.6-12.6c5.9,0,10.8,4,12.2,9.5l22.5,0c1.7,0,3.2,1.4,3.2,3.2
	C104.4,68.2,102.9,69.6,101.2,69.6z M34.4,80c-1.8-4.2-2.7-8.7-2.7-13.5c0-19.2,15.6-34.8,34.8-34.8c15.9,0,29.3,10.7,33.5,25.3
	l-19.6,0c-3.7-8.4-12-14.2-21.7-14.2c-13.1,0-23.7,10.6-23.7,23.7c0,4.4,0.9,8.5,2.5,12.3L34.4,80z"/>
</svg>
